<svg width="235" height="130" viewBox="0 0 235 130" fill="none" xmlns="http://www.w3.org/2000/svg">
<rect width="235" height="130" rx="30" fill="#FAEDCB"/>
<path d="M48.144 47.4C49.6373 46.5467 50.9387 46.44 52.048 47.08C53.1573 47.72 53.712 48.8933 53.712 50.6V82.6L62.032 77.8V39.4L67.6 36.2V81L53.712 89C52.2613 89.8533 50.96 89.96 49.808 89.32C48.6987 88.68 48.144 87.5067 48.144 85.8V53.8L39.888 58.6V97L34.32 100.2V55.4L48.144 47.4ZM67.6 36.2L62.032 39.4L56.464 36.2L62.032 33L67.6 36.2ZM62.032 39.4V77.8L56.464 74.6V36.2L62.032 39.4ZM62.032 77.8L53.712 82.6L48.144 79.4L56.464 74.6L62.032 77.8ZM48.144 53.8V85.8C48.144 87.5067 48.6987 88.68 49.808 89.32L44.304 86.12C43.1947 85.48 42.64 84.3067 42.64 82.6V50.6L48.144 53.8ZM52.048 47.08C50.9387 46.44 49.6373 46.5467 48.144 47.4L34.32 55.4L28.752 52.2L42.64 44.2C44.0907 43.3467 45.3707 43.24 46.48 43.88L52.048 47.08ZM34.32 55.4V100.2L28.752 97V52.2L34.32 55.4ZM84.263 49.64L98.087 41.64C99.5377 40.7867 100.818 40.68 101.927 41.32C103.079 41.96 103.655 43.1333 103.655 44.84V81.96C103.655 83.0693 103.378 84.264 102.823 85.544C102.311 86.824 101.628 88.0187 100.775 89.128C99.9643 90.1947 99.0683 91.0053 98.087 91.56L84.263 99.56C82.7697 100.413 81.4683 100.52 80.359 99.88C79.2497 99.24 78.695 98.0667 78.695 96.36V59.24C78.695 58.088 78.951 56.8933 79.463 55.656C79.975 54.376 80.6577 53.2027 81.511 52.136C82.3643 51.0267 83.2817 50.1947 84.263 49.64ZM84.263 93.16L98.087 85.16V48.04L84.263 56.04V93.16ZM98.087 48.04V85.16L92.519 81.96V44.84L98.087 48.04ZM98.087 85.16L84.263 93.16L78.695 89.96L92.519 81.96L98.087 85.16ZM101.991 41.32C100.839 40.68 99.5377 40.7867 98.087 41.64L84.263 49.64C83.2817 50.1947 82.3643 51.0267 81.511 52.136C80.6577 53.2027 79.975 54.376 79.463 55.656C78.951 56.8933 78.695 58.088 78.695 59.24V96.36C78.695 98.0667 79.2497 99.24 80.359 99.88L74.791 96.68C73.6817 96.04 73.127 94.8667 73.127 93.16V56.04C73.127 54.888 73.383 53.6933 73.895 52.456C74.407 51.176 75.0897 50.0027 75.943 48.936C76.7963 47.8267 77.7137 46.9947 78.695 46.44L92.519 38.44C94.0123 37.5867 95.3137 37.48 96.423 38.12L101.991 41.32ZM124.742 56.04L114.758 61.8V55.4L140.229 40.68V47.08L130.246 52.84V97L124.742 100.2V56.04ZM124.742 56.04V100.2L119.174 97V52.84L124.742 56.04ZM140.229 40.68L114.758 55.4L109.19 52.2L134.726 37.48L140.229 40.68ZM114.758 55.4V61.8L109.19 58.6V52.2L114.758 55.4ZM158.179 56.04L148.195 61.8V55.4L173.667 40.68V47.08L163.683 52.84V97L158.179 100.2V56.04ZM158.179 56.04V100.2L152.611 97V52.84L158.179 56.04ZM173.667 40.68L148.195 55.4L142.627 52.2L168.163 37.48L173.667 40.68ZM148.195 55.4V61.8L142.627 58.6V52.2L148.195 55.4ZM191.617 81.64L187.201 84.2C185.707 85.0533 184.406 85.16 183.297 84.52C182.187 83.88 181.633 82.7067 181.633 81V55.4L187.201 52.2V77.8L201.601 69.48V43.88L207.104 40.68V66.28C207.104 67.3893 206.849 68.584 206.337 69.864C205.825 71.144 205.142 72.3387 204.289 73.448C203.478 74.5147 202.582 75.3253 201.601 75.88L197.121 78.44V97.64L191.617 100.84V81.64ZM191.617 81.64V100.84L186.049 97.64V78.44L191.617 81.64ZM207.104 40.68L201.601 43.88L196.033 40.68L201.601 37.48L207.104 40.68ZM201.601 43.88V69.48L196.033 66.28V40.68L201.601 43.88ZM201.601 69.48L187.201 77.8L181.633 74.6L196.033 66.28L201.601 69.48ZM187.201 52.2L181.633 55.4L176.065 52.2L181.633 49L187.201 52.2ZM181.633 55.4V81C181.633 82.7067 182.187 83.88 183.297 84.52L177.729 81.32C176.619 80.68 176.065 79.5067 176.065 77.8V52.2L181.633 55.4Z" fill="#FF7D93"/>
</svg>
